<svg xmlns="http://www.w3.org/2000/svg" xmlns:xlink="http://www.w3.org/1999/xlink" width="338.412" height="105.309" viewBox="0 0 338.412 105.309"><defs><linearGradient id="a" x1="0.624" y1="0.765" x2="0.376" y2="0.235" gradientUnits="objectBoundingBox"><stop offset="0" stop-color="#3bffcf"></stop><stop offset="0.78" stop-color="#21f1d7"></stop><stop offset="1" stop-color="#07e2df"></stop></linearGradient><linearGradient id="b" x1="0.015" y1="0.565" x2="0.985" y2="0.435" gradientUnits="objectBoundingBox"><stop offset="0" stop-color="#10cfff"></stop><stop offset="0.78" stop-color="#08b2e5"></stop><stop offset="1" stop-color="#0094cb"></stop></linearGradient></defs><g transform="translate(1905.878 1057.879)"><path d="M63.114-119.6a97.036,97.036,0,0,1-14.139-7.286v-.144a26.817,26.817,0,0,0,9.667-7.142,31.187,31.187,0,0,0,7.43-20.271c0-15-11.182-24.167-24.744-24.167a26.909,26.909,0,0,0-20.776,9.378,31.186,31.186,0,0,0-7.43,20.271c0,14.211,10.027,23.157,22.58,24.095a66.416,66.416,0,0,0,16.953,11.4ZM38.3-135.105c-8.512,0-13.634-6.565-13.634-14.716a20.837,20.837,0,0,1,4.689-12.985A14.464,14.464,0,0,1,40.9-168.289c8.512,0,13.634,6.565,13.634,14.716a20.837,20.837,0,0,1-4.689,12.985A14.464,14.464,0,0,1,38.3-135.105Zm49.055,6.2-.577,3.318H97.525l6.276-35.492H92.836l-4.184,23.734a10.52,10.52,0,0,1-7.286,3.174c-3.03,0-4.689-1.587-4.689-4.184a16.651,16.651,0,0,1,.289-2.813l3.535-19.91H69.535L65.856-140.3a28.1,28.1,0,0,0-.433,4.545c0,6.565,4.473,10.965,11.037,10.965a16.268,16.268,0,0,0,10.749-4.184Zm46.891-7.647a28.4,28.4,0,0,1-11.975,3.246c-4.833,0-8.44-2.236-8.945-7.142H137.49a26.072,26.072,0,0,0,.866-6.565c0-9.739-7.214-14.861-15.654-14.861a19.519,19.519,0,0,0-13.995,5.771,21.945,21.945,0,0,0-6.2,15.221c0,10.893,8.657,16.087,18.323,16.087a31.419,31.419,0,0,0,11.614-2.236Zm-19.983-10.821c1.443-3.607,4.184-6.132,7.935-6.132,3.679,0,6.132,2.309,6.2,6.132Zm22.507,21.786h10.965l4.184-23.878a12.98,12.98,0,0,1,7.647-2.958c3.1,0,4.4,1.8,4.4,4.184a15.9,15.9,0,0,1-.289,2.6l-3.535,20.055h10.965l3.679-20.92a26.447,26.447,0,0,0,.433-4.328c0-6.565-4.112-11.037-10.965-11.037a16.945,16.945,0,0,0-10.893,4.112l-.144-.072.577-3.246H143.045Zm62.473-9.595a10.961,10.961,0,0,1-4.689,1.154c-2.669,0-3.968-1.371-3.968-3.823a15.945,15.945,0,0,1,.289-2.525l2.02-11.614H202.2l1.587-9.09H194.48l1.876-10.46-11.109.649-1.731,9.811h-5.771l-1.587,9.09h5.771l-2.092,11.831a30.81,30.81,0,0,0-.505,4.617c0,7.719,6.06,10.749,12.336,10.749a18.166,18.166,0,0,0,5.915-.938Zm10.893,9.595,3.751-21.5a14.521,14.521,0,0,1,10.027-4.184,11.614,11.614,0,0,1,3.1.5L228.6-161a8.4,8.4,0,0,0-2.886-.5c-3.968,0-7.5,2.236-10.172,5.266l-.144-.072.794-4.761H205.445l-6.276,35.492Zm14.789-15.654c0,10.244,7.719,16.448,17.674,16.448a20.226,20.226,0,0,0,14.716-5.915,21.353,21.353,0,0,0,5.915-14.716c0-10.244-7.719-16.448-17.674-16.448a20.226,20.226,0,0,0-14.716,5.915A21.353,21.353,0,0,0,224.923-141.237Zm10.965-.721a12.341,12.341,0,0,1,2.741-7.791,8.179,8.179,0,0,1,6.348-2.741c4.761,0,7.286,3.318,7.286,7.791a12.342,12.342,0,0,1-2.741,7.791,8.179,8.179,0,0,1-6.348,2.741C238.413-134.167,235.888-137.486,235.888-141.958Z" transform="translate(-1919 -854.849)" fill="#fff"></path><g transform="translate(-1639.475 -1057.879)"><g transform="translate(7.872 0)"><g transform="translate(0 0)"><path d="M221.483,42.971a.223.223,0,0,1,.307-.034c.492.383,1.91,1.485,2.414,1.869l37.713,28.9c11.942,8.858,15.723,11.062,15.723,19.129a14.245,14.245,0,0,1-5.176,10.912h0l-.036.027a15.382,15.382,0,0,1-1.275.959L237.238,130.24c11.743-13.569,10.35-41.462-5.414-52.814l-13.159-10a12.6,12.6,0,0,1-2.122-18.373Z" transform="translate(-213.504 -42.891)" fill="#9b9b9b"></path></g><path d="M18.32,34.535l-13.159-10A12.793,12.793,0,0,1,0,14.352,12.6,12.6,0,0,1,3.04,6.157L7.98.08A.225.225,0,0,1,8.287.045C8.778.43,10.2,1.53,10.7,1.915L48.414,30.81c11.941,8.858,15.723,11.064,15.723,19.128v0a14.242,14.242,0,0,1-5.174,10.912l-.035.028a15.453,15.453,0,0,1-1.276.958L23.734,87.349C35.476,73.78,34.084,45.886,18.32,34.535Z" transform="translate(0 0)" fill="url(#a)"></path></g><g transform="translate(0 57.625)"><g transform="matrix(1, 0.012, -0.012, 1, 0.56, 0)"><g transform="translate(0 0)"><path d="M34.053,0,5.019,23.285A13.494,13.494,0,0,0,2.956,42.214l3.118,3.9a3.074,3.074,0,0,0,4.331.475L28.5,32.013C39.471,17.682,34.053,0,34.053,0Z" transform="translate(0)" fill="#9b9b9b"></path></g></g><path d="M8.32,46.957a3.073,3.073,0,0,1-2.391-1.185L2.857,41.84a13.493,13.493,0,0,1,2.287-18.9L34.452,0s5.208,17.745-5.936,31.944L10.254,46.3a3.059,3.059,0,0,1-1.9.658Z" transform="translate(0.159 0.406)" fill="url(#b)"></path><path d="M8.32,46.957a3.073,3.073,0,0,1-2.391-1.185L2.857,41.84a13.493,13.493,0,0,1,2.287-18.9L34.452,0s5.208,17.745-5.936,31.944L10.254,46.3a3.059,3.059,0,0,1-1.9.658Z" transform="translate(0.159 0.406)" fill="#07e2df" opacity="0.13"></path></g></g></g></svg>